<svg width="131" height="25" viewBox="0 0 131 25" fill="none" xmlns="http://www.w3.org/2000/svg">
<path d="M0.384 20.88L8.352 1.08H11.784L3.816 20.88H0.384Z" fill="#1ED760"/>
<path d="M19.5806 18.168C18.4126 18.168 17.3566 17.968 16.4126 17.568C15.4846 17.168 14.7486 16.592 14.2046 15.84C13.6606 15.088 13.3806 14.2 13.3646 13.176H16.9646C17.0126 13.864 17.2526 14.408 17.6846 14.808C18.1326 15.208 18.7406 15.408 19.5086 15.408C20.2926 15.408 20.9086 15.224 21.3566 14.856C21.8046 14.472 22.0286 13.976 22.0286 13.368C22.0286 12.872 21.8766 12.464 21.5726 12.144C21.2686 11.824 20.8846 11.576 20.4206 11.4C19.9726 11.208 19.3486 11 18.5486 10.776C17.4606 10.456 16.5726 10.144 15.8846 9.84C15.2126 9.52 14.6286 9.048 14.1326 8.424C13.6526 7.784 13.4126 6.936 13.4126 5.88C13.4126 4.888 13.6606 4.024 14.1566 3.288C14.6526 2.552 15.3486 1.992 16.2446 1.608C17.1406 1.208 18.1646 1.008 19.3166 1.008C21.0446 1.008 22.4446 1.432 23.5166 2.28C24.6046 3.112 25.2046 4.28 25.3166 5.784H21.6206C21.5886 5.208 21.3406 4.736 20.8766 4.368C20.4286 3.984 19.8286 3.792 19.0766 3.792C18.4206 3.792 17.8926 3.96 17.4926 4.296C17.1086 4.632 16.9166 5.12 16.9166 5.76C16.9166 6.208 17.0606 6.584 17.3486 6.888C17.6526 7.176 18.0206 7.416 18.4526 7.608C18.9006 7.784 19.5246 7.992 20.3246 8.232C21.4126 8.552 22.3006 8.872 22.9886 9.192C23.6766 9.512 24.2686 9.992 24.7646 10.632C25.2606 11.272 25.5086 12.112 25.5086 13.152C25.5086 14.048 25.2766 14.88 24.8126 15.648C24.3486 16.416 23.6686 17.032 22.7726 17.496C21.8766 17.944 20.8126 18.168 19.5806 18.168ZM35.9096 4.512C36.9176 4.512 37.8136 4.736 38.5976 5.184C39.3816 5.616 39.9896 6.264 40.4216 7.128C40.8696 7.976 41.0936 9 41.0936 10.2V18H37.7336V10.656C37.7336 9.6 37.4696 8.792 36.9416 8.232C36.4136 7.656 35.6936 7.368 34.7816 7.368C33.8536 7.368 33.1176 7.656 32.5736 8.232C32.0456 8.792 31.7816 9.6 31.7816 10.656V18H28.4216V0.24H31.7816V6.36C32.2136 5.784 32.7896 5.336 33.5096 5.016C34.2296 4.68 35.0296 4.512 35.9096 4.512ZM43.4248 11.304C43.4248 9.96 43.6888 8.768 44.2168 7.728C44.7608 6.688 45.4888 5.888 46.4008 5.328C47.3288 4.768 48.3608 4.488 49.4968 4.488C50.4888 4.488 51.3528 4.688 52.0888 5.088C52.8408 5.488 53.4408 5.992 53.8888 6.6V4.704H57.2728V18H53.8888V16.056C53.4568 16.68 52.8568 17.2 52.0888 17.616C51.3368 18.016 50.4648 18.216 49.4728 18.216C48.3528 18.216 47.3288 17.928 46.4008 17.352C45.4888 16.776 44.7608 15.968 44.2168 14.928C43.6888 13.872 43.4248 12.664 43.4248 11.304ZM53.8888 11.352C53.8888 10.536 53.7288 9.84 53.4088 9.264C53.0888 8.672 52.6568 8.224 52.1128 7.92C51.5688 7.6 50.9848 7.44 50.3608 7.44C49.7368 7.44 49.1608 7.592 48.6328 7.896C48.1048 8.2 47.6728 8.648 47.3368 9.24C47.0168 9.816 46.8568 10.504 46.8568 11.304C46.8568 12.104 47.0168 12.808 47.3368 13.416C47.6728 14.008 48.1048 14.464 48.6328 14.784C49.1768 15.104 49.7528 15.264 50.3608 15.264C50.9848 15.264 51.5688 15.112 52.1128 14.808C52.6568 14.488 53.0888 14.04 53.4088 13.464C53.7288 12.872 53.8888 12.168 53.8888 11.352ZM63.9144 6.768C64.3464 6.064 64.9064 5.512 65.5944 5.112C66.2984 4.712 67.0984 4.512 67.9944 4.512V8.04H67.1064C66.0504 8.04 65.2504 8.288 64.7064 8.784C64.1784 9.28 63.9144 10.144 63.9144 11.376V18H60.5544V4.704H63.9144V6.768ZM73.6176 6.624C74.0496 6.016 74.6416 5.512 75.3936 5.112C76.1616 4.696 77.0336 4.488 78.0096 4.488C79.1456 4.488 80.1696 4.768 81.0816 5.328C82.0096 5.888 82.7376 6.688 83.2656 7.728C83.8096 8.752 84.0816 9.944 84.0816 11.304C84.0816 12.664 83.8096 13.872 83.2656 14.928C82.7376 15.968 82.0096 16.776 81.0816 17.352C80.1696 17.928 79.1456 18.216 78.0096 18.216C77.0336 18.216 76.1696 18.016 75.4176 17.616C74.6816 17.216 74.0816 16.712 73.6176 16.104V24.336H70.2576V4.704H73.6176V6.624ZM80.6496 11.304C80.6496 10.504 80.4816 9.816 80.1456 9.24C79.8256 8.648 79.3936 8.2 78.8496 7.896C78.3216 7.592 77.7456 7.44 77.1216 7.44C76.5136 7.44 75.9376 7.6 75.3936 7.92C74.8656 8.224 74.4336 8.672 74.0976 9.264C73.7776 9.856 73.6176 10.552 73.6176 11.352C73.6176 12.152 73.7776 12.848 74.0976 13.44C74.4336 14.032 74.8656 14.488 75.3936 14.808C75.9376 15.112 76.5136 15.264 77.1216 15.264C77.7456 15.264 78.3216 15.104 78.8496 14.784C79.3936 14.464 79.8256 14.008 80.1456 13.416C80.4816 12.824 80.6496 12.12 80.6496 11.304ZM92.3072 18.168C91.1392 18.168 90.0832 17.968 89.1392 17.568C88.2112 17.168 87.4752 16.592 86.9312 15.84C86.3872 15.088 86.1072 14.2 86.0912 13.176H89.6912C89.7392 13.864 89.9792 14.408 90.4112 14.808C90.8592 15.208 91.4672 15.408 92.2352 15.408C93.0192 15.408 93.6352 15.224 94.0832 14.856C94.5312 14.472 94.7552 13.976 94.7552 13.368C94.7552 12.872 94.6032 12.464 94.2992 12.144C93.9952 11.824 93.6112 11.576 93.1472 11.4C92.6992 11.208 92.0752 11 91.2752 10.776C90.1872 10.456 89.2992 10.144 88.6112 9.84C87.9392 9.52 87.3552 9.048 86.8592 8.424C86.3792 7.784 86.1392 6.936 86.1392 5.88C86.1392 4.888 86.3872 4.024 86.8832 3.288C87.3792 2.552 88.0752 1.992 88.9712 1.608C89.8672 1.208 90.8912 1.008 92.0432 1.008C93.7712 1.008 95.1712 1.432 96.2432 2.28C97.3312 3.112 97.9312 4.28 98.0432 5.784H94.3472C94.3152 5.208 94.0672 4.736 93.6032 4.368C93.1552 3.984 92.5552 3.792 91.8032 3.792C91.1472 3.792 90.6192 3.96 90.2192 4.296C89.8352 4.632 89.6432 5.12 89.6432 5.76C89.6432 6.208 89.7872 6.584 90.0752 6.888C90.3792 7.176 90.7472 7.416 91.1792 7.608C91.6272 7.784 92.2512 7.992 93.0512 8.232C94.1392 8.552 95.0272 8.872 95.7152 9.192C96.4032 9.512 96.9952 9.992 97.4912 10.632C97.9872 11.272 98.2352 12.112 98.2352 13.152C98.2352 14.048 98.0032 14.88 97.5392 15.648C97.0752 16.416 96.3952 17.032 95.4992 17.496C94.6032 17.944 93.5392 18.168 92.3072 18.168ZM113.7 4.704V18H110.316V16.32C109.884 16.896 109.316 17.352 108.612 17.688C107.924 18.008 107.172 18.168 106.356 18.168C105.316 18.168 104.396 17.952 103.596 17.52C102.796 17.072 102.164 16.424 101.7 15.576C101.252 14.712 101.028 13.688 101.028 12.504V4.704H104.388V12.024C104.388 13.08 104.652 13.896 105.18 14.472C105.708 15.032 106.428 15.312 107.34 15.312C108.268 15.312 108.996 15.032 109.524 14.472C110.052 13.896 110.316 13.08 110.316 12.024V4.704H113.7ZM120.375 6.648C120.807 6.008 121.399 5.488 122.151 5.088C122.919 4.688 123.791 4.488 124.767 4.488C125.903 4.488 126.927 4.768 127.839 5.328C128.767 5.888 129.495 6.688 130.023 7.728C130.567 8.752 130.839 9.944 130.839 11.304C130.839 12.664 130.567 13.872 130.023 14.928C129.495 15.968 128.767 16.776 127.839 17.352C126.927 17.928 125.903 18.216 124.767 18.216C123.775 18.216 122.903 18.024 122.151 17.64C121.415 17.24 120.823 16.728 120.375 16.104V18H117.015V0.24H120.375V6.648ZM127.407 11.304C127.407 10.504 127.239 9.816 126.903 9.24C126.583 8.648 126.151 8.2 125.607 7.896C125.079 7.592 124.503 7.44 123.879 7.44C123.271 7.44 122.695 7.6 122.151 7.92C121.623 8.224 121.191 8.672 120.855 9.264C120.535 9.856 120.375 10.552 120.375 11.352C120.375 12.152 120.535 12.848 120.855 13.44C121.191 14.032 121.623 14.488 122.151 14.808C122.695 15.112 123.271 15.264 123.879 15.264C124.503 15.264 125.079 15.104 125.607 14.784C126.151 14.464 126.583 14.008 126.903 13.416C127.239 12.824 127.407 12.12 127.407 11.304Z" fill="white"/>
</svg>
