<svg width="12" height="12" viewBox="0 0 12 12" fill="none" xmlns="http://www.w3.org/2000/svg">
<path fill-rule="evenodd" clip-rule="evenodd" d="M5.07086 1.26668C5.52681 0.405439 6.76058 0.405433 7.21653 1.26668L11.671 9.68072C12.099 10.4892 11.513 11.4626 10.5982 11.4626H1.6892C0.774436 11.4626 0.188357 10.4892 0.616368 9.68073L5.07086 1.26668ZM10.5982 10.2487L6.1437 1.83466L1.6892 10.2487L10.5982 10.2487Z" fill="#E40000"/>
<path d="M5.53674 4.78611C5.53674 4.4509 5.80848 4.17916 6.1437 4.17916C6.47891 4.17916 6.75065 4.4509 6.75065 4.78611V7.21393C6.75065 7.54914 6.47891 7.82088 6.1437 7.82088C5.80848 7.82088 5.53674 7.54914 5.53674 7.21393V4.78611Z" fill="#E40000"/>
<path d="M6.75065 9.03479C6.75065 9.37 6.47891 9.64174 6.1437 9.64174C5.80848 9.64174 5.53674 9.37 5.53674 9.03479C5.53674 8.69958 5.80848 8.42784 6.1437 8.42784C6.47891 8.42784 6.75065 8.69958 6.75065 9.03479Z" fill="#E40000"/>
</svg>
