<svg width="17" height="11" viewBox="0 0 17 11" fill="none" xmlns="http://www.w3.org/2000/svg">
<path d="M8.5 8.77273C9.40909 8.77273 10.1818 8.45455 10.8182 7.81818C11.4545 7.18182 11.7727 6.40909 11.7727 5.5C11.7727 4.59091 11.4545 3.81818 10.8182 3.18182C10.1818 2.54546 9.40909 2.22727 8.5 2.22727C7.59091 2.22727 6.81818 2.54546 6.18182 3.18182C5.54545 3.81818 5.22727 4.59091 5.22727 5.5C5.22727 6.40909 5.54545 7.18182 6.18182 7.81818C6.81818 8.45455 7.59091 8.77273 8.5 8.77273ZM8.5 7.46364C7.95455 7.46364 7.49091 7.27273 7.10909 6.89091C6.72727 6.50909 6.53636 6.04546 6.53636 5.5C6.53636 4.95455 6.72727 4.49091 7.10909 4.10909C7.49091 3.72727 7.95455 3.53637 8.5 3.53637C9.04545 3.53637 9.50909 3.72727 9.89091 4.10909C10.2727 4.49091 10.4636 4.95455 10.4636 5.5C10.4636 6.04546 10.2727 6.50909 9.89091 6.89091C9.50909 7.27273 9.04545 7.46364 8.5 7.46364ZM8.5 10.9545C6.7303 10.9545 5.11818 10.4606 3.66364 9.47273C2.20909 8.48485 1.15455 7.16061 0.5 5.5C1.15455 3.8394 2.20909 2.51515 3.66364 1.52727C5.11818 0.539395 6.7303 0.0454559 8.5 0.0454559C10.2697 0.0454559 11.8818 0.539395 13.3364 1.52727C14.7909 2.51515 15.8455 3.8394 16.5 5.5C15.8455 7.16061 14.7909 8.48485 13.3364 9.47273C11.8818 10.4606 10.2697 10.9545 8.5 10.9545ZM8.5 9.5C9.8697 9.5 11.1273 9.1394 12.2727 8.41818C13.4182 7.69697 14.2939 6.72424 14.9 5.5C14.2939 4.27576 13.4182 3.30303 12.2727 2.58182C11.1273 1.86061 9.8697 1.5 8.5 1.5C7.1303 1.5 5.87273 1.86061 4.72727 2.58182C3.58182 3.30303 2.70606 4.27576 2.1 5.5C2.70606 6.72424 3.58182 7.69697 4.72727 8.41818C5.87273 9.1394 7.1303 9.5 8.5 9.5Z" fill="#C7C7C7"/>
</svg>
