<svg width="18" height="15" viewBox="0 0 18 15" fill="none" xmlns="http://www.w3.org/2000/svg">
<path d="M12.2724 7.95455L11.1739 6.85606C11.2876 6.26263 11.1171 5.70707 10.6626 5.18939C10.208 4.67172 9.62089 4.4697 8.90119 4.58333L7.8027 3.48485C8.01735 3.38384 8.23515 3.30808 8.45611 3.25758C8.67707 3.20707 8.91382 3.18182 9.16634 3.18182C10.1133 3.18182 10.9182 3.51326 11.5811 4.17614C12.244 4.83902 12.5754 5.64394 12.5754 6.59091C12.5754 6.84343 12.5502 7.08018 12.4997 7.30114C12.4492 7.5221 12.3734 7.7399 12.2724 7.95455ZM14.6966 10.3409L13.5982 9.2803C14.078 8.91414 14.5041 8.51326 14.8766 8.07765C15.249 7.64205 15.5679 7.14646 15.833 6.59091C15.2017 5.31566 14.2958 4.3024 13.1152 3.55114C11.9346 2.79987 10.6184 2.42424 9.16634 2.42424C8.80018 2.42424 8.44033 2.44949 8.0868 2.5C7.73326 2.5505 7.38604 2.62626 7.04513 2.72727L5.87089 1.55303C6.38856 1.33838 6.91887 1.1774 7.4618 1.07008C8.00472 0.962753 8.57291 0.909091 9.16634 0.909091C11.0729 0.909091 12.7711 1.43624 14.261 2.49053C15.7509 3.54482 16.8305 4.91162 17.4997 6.59091C17.2093 7.33586 16.8273 8.02715 16.3538 8.66477C15.8804 9.3024 15.328 9.86111 14.6966 10.3409ZM15.0754 15L11.8936 11.8561C11.4517 11.9949 11.0066 12.0991 10.5584 12.1686C10.1102 12.238 9.64614 12.2727 9.16634 12.2727C7.25978 12.2727 5.56154 11.7456 4.07164 10.6913C2.58175 9.637 1.5022 8.2702 0.833008 6.59091C1.09816 5.92172 1.43276 5.29987 1.8368 4.72538C2.24084 4.15088 2.70169 3.63636 3.21937 3.18182L1.13604 1.06061L2.19664 0L16.136 13.9394L15.0754 15ZM4.27998 4.24242C3.91382 4.57071 3.57922 4.93056 3.27619 5.32197C2.97316 5.71338 2.71432 6.13636 2.49967 6.59091C3.13099 7.86616 4.03692 8.87942 5.21748 9.63068C6.39803 10.3819 7.71432 10.7576 9.16634 10.7576C9.41887 10.7576 9.66508 10.7418 9.90498 10.7102C10.1449 10.6787 10.3911 10.6439 10.6436 10.6061L9.9618 9.88636C9.82291 9.92424 9.69033 9.95265 9.56407 9.97159C9.43781 9.99053 9.30523 10 9.16634 10C8.21937 10 7.41445 9.66856 6.75157 9.00568C6.08869 8.3428 5.75725 7.53788 5.75725 6.59091C5.75725 6.45202 5.76672 6.31944 5.78566 6.19318C5.8046 6.06692 5.83301 5.93434 5.87089 5.79545L4.27998 4.24242Z" fill="#C7C7C7"/>
</svg>
